<svg width="667" height="497" viewBox="0 0 667 497" fill="none" xmlns="http://www.w3.org/2000/svg">
<path d="M0 436.928H666.667V436.594H0V436.928Z" fill="#E7E8E5"/>
<path d="M570.963 458.055H599.868V458.389H570.963V458.055Z" fill="#E7E8E5"/>
<path d="M414.078 451.471H459.557V451.137H414.078V451.471Z" fill="#E7E8E5"/>
<path d="M528.781 445.673H588.148V446.006H528.781V445.673Z" fill="#E7E8E5"/>
<path d="M230.685 452.729H215.836V452.395H230.685V452.729Z" fill="#E7E8E5"/>
<path d="M152.779 452.729H203.963V452.395H152.779V452.729Z" fill="#E7E8E5"/>
<path d="M125.335 447.1H88.4082V446.766H125.335V447.1Z" fill="#E7E8E5"/>
<path d="M58.5538 0.333038C54.5414 0.333038 51.2767 3.59842 51.2767 7.60907V369.519C51.2767 373.531 54.5414 376.796 58.5538 376.796H316.019C320.03 376.796 323.295 373.531 323.295 369.519V7.60907C323.295 3.59842 320.03 0.333038 316.019 0.333038H58.5538ZM316.019 377.129H58.5538C54.3575 377.129 50.9434 373.716 50.9434 369.519V7.60907C50.9434 3.4144 54.3575 -0.000305176 58.5538 -0.000305176H316.019C320.214 -0.000305176 323.629 3.4144 323.629 7.60907V369.519C323.629 373.716 320.214 377.129 316.019 377.129Z" fill="#E7E8E5"/>
<path d="M346.949 0.333038C342.937 0.333038 339.673 3.59842 339.673 7.60907V369.519C339.673 373.531 342.937 376.796 346.949 376.796H604.414C608.426 376.796 611.692 373.531 611.692 369.519V7.60907C611.692 3.59842 608.426 0.333038 604.414 0.333038H346.949ZM604.414 377.129H346.949C342.753 377.129 339.34 373.716 339.34 369.519V7.60907C339.34 3.4144 342.753 -0.000305176 346.949 -0.000305176H604.414C608.61 -0.000305176 612.025 3.4144 612.025 7.60907V369.519C612.025 373.716 608.61 377.129 604.414 377.129Z" fill="#E7E8E5"/>
<path d="M169.701 251.329C131.331 250.013 101.284 217.835 102.598 179.463C103.915 141.047 136.093 111.003 174.464 112.316C212.835 113.631 242.883 145.808 241.565 184.224C240.251 222.597 208.072 252.643 169.701 251.329ZM288.097 194.567L288.697 177.047L277.94 173.532C277.497 167.545 276.497 161.633 275.072 155.937L284.189 149.215L277.996 132.757L266.719 133.665C264.031 128.343 260.872 123.281 257.331 118.532L263.173 108.781L251.161 95.9666L241.08 101.129C236.539 97.2706 231.751 93.7733 226.627 90.6826L228.26 79.492L212.263 72.2306L204.933 80.8213C199.349 79.0093 193.564 77.6547 187.579 76.756L184.852 65.784L167.285 65.1826L163.816 75.94C157.781 76.428 151.917 77.3853 146.221 78.8093L139.451 69.736L122.994 75.8853L123.904 87.164C118.581 89.896 113.52 93.0546 108.77 96.596L99.0661 90.756L86.2052 102.719L91.3667 112.845C87.5099 117.341 84.012 122.176 80.9656 127.301L69.7765 125.623L62.4713 141.616L71.1063 148.948C69.2959 154.533 67.8917 160.364 67.0407 166.305L56.0224 169.073L55.4219 186.596L66.2245 190.113C66.6656 196.145 67.6688 202.012 69.0932 207.707L59.9771 214.429L66.1703 230.889L77.4479 229.977C80.136 235.299 83.2948 240.361 86.8349 245.112L80.9921 254.861L93.0041 267.677L103.085 262.513C107.582 266.372 112.415 269.871 117.539 272.961L115.859 284.149L131.856 291.409L139.232 282.821C144.816 284.633 150.601 285.989 156.588 286.888L159.313 297.857L176.88 298.46L180.351 287.701C186.384 287.215 192.248 286.259 197.944 284.833L204.668 293.904L221.124 287.756L220.261 276.481C225.585 273.748 230.6 270.587 235.395 267.047L245.1 272.889L257.96 260.924L252.8 250.797C256.656 246.3 260.155 241.467 263.2 236.341L274.389 238.021L281.695 222.025L273.059 214.695C274.871 209.112 276.272 203.327 277.124 197.339L288.097 194.567" fill="#E7E8E5"/>
<path d="M556.455 111.118C553.204 107.637 553.391 102.178 556.872 98.9273C560.359 95.6713 565.818 95.8593 569.068 99.3407C572.32 102.823 572.132 108.281 568.647 111.537C565.166 114.787 559.706 114.601 556.455 111.118ZM587.943 136.626L592.362 132.499L590.596 129.021C591.948 127.453 593.146 125.767 594.187 124.031L598.05 124.614L600.552 119.091L597.58 116.562C598.223 114.611 598.687 112.606 598.982 110.585L602.784 109.63L602.98 103.577L599.263 102.378C599.096 100.33 598.782 98.31 598.286 96.306L601.414 93.9753L599.283 88.3047L595.4 88.6113C594.48 86.8087 593.4 85.066 592.16 83.3873L594.171 80.0487L590.034 75.6167L586.564 77.3953C584.974 76.0433 583.311 74.846 581.575 73.8047L582.136 69.942L576.624 67.4273L574.096 70.3993C572.131 69.7687 570.127 69.3047 568.106 69.0087L567.163 65.218L561.11 64.9993L559.899 68.7273C557.862 68.8847 555.831 69.21 553.838 69.7167L551.519 66.5793L545.838 68.698L546.155 72.5913C544.352 73.5113 542.588 74.5913 540.931 75.8327L537.57 73.8207L533.151 77.9473L534.927 81.4393C533.564 83.0167 532.378 84.6926 531.336 86.4286L527.474 85.8433L524.971 91.3687L527.943 93.8953C527.302 95.8486 526.836 97.854 526.542 99.8753L522.74 100.827L522.543 106.883L526.262 108.081C526.416 110.118 526.742 112.15 527.238 114.154L524.1 116.471L526.231 122.143L530.123 121.847C531.043 123.651 532.123 125.393 533.364 127.07L531.354 130.41L535.49 134.841L538.96 133.063C540.55 134.417 542.212 135.613 543.95 136.654L543.376 140.506L548.89 143.019L551.428 140.059C553.392 140.691 555.387 141.143 557.419 141.449L558.36 145.241L564.414 145.458L565.626 141.73C567.662 141.575 569.694 141.25 571.686 140.742L574.004 143.881L579.687 141.762L579.368 137.867C581.171 136.947 582.924 135.879 584.592 134.627L587.943 136.626Z" fill="#E7E8E5"/>
<path d="M335.383 361.031C317.178 360.407 302.957 345.123 303.579 326.969C304.202 308.764 319.434 294.541 337.639 295.164C355.846 295.788 370.069 311.02 369.445 329.225C368.823 347.38 353.589 361.655 335.383 361.031ZM426.653 316.511L412.865 306.989L412.857 306.956C411.494 301.948 409.611 297.125 407.311 292.595L410.845 278.731L390.845 257.311L376.766 259.888C372.407 257.287 367.727 255.081 362.827 253.379L362.793 253.368L354.233 238.955L324.947 237.951L315.425 251.74L315.37 251.753C310.366 253.116 305.55 254.995 301.023 257.291L287.166 253.759L265.747 273.76L268.319 287.809L268.311 287.823C265.655 292.231 263.502 296.912 261.799 301.813L247.389 310.369L246.385 339.657L260.186 349.187C261.547 354.231 263.371 359.041 265.715 363.61L265.718 363.616L262.195 377.438L282.195 398.855L296.186 396.295C300.602 398.905 305.287 401.115 310.247 402.819L310.259 402.822L318.805 417.215L348.091 418.219L357.607 404.44C362.67 403.077 367.494 401.197 372.075 398.895L372.079 398.892L385.874 402.408L407.293 382.409L404.719 368.356C407.375 363.946 409.53 359.264 411.233 354.363L411.234 354.36L425.65 345.799L426.653 316.511Z" fill="#E7E8E5"/>
<path d="M448.921 122.89C429.323 122.89 413.054 138.483 412.378 158.218C411.687 178.375 427.525 195.335 447.683 196.027C457.45 196.354 466.765 192.87 473.907 186.191C481.045 179.519 485.159 170.474 485.494 160.723C486.183 140.565 470.346 123.603 450.189 122.911C449.765 122.897 449.341 122.89 448.921 122.89ZM448.971 201.681C448.478 201.681 447.986 201.671 447.49 201.655C424.229 200.858 405.953 181.285 406.75 158.025C407.547 134.765 427.151 116.494 450.381 117.283C473.642 118.081 491.918 137.654 491.121 160.915C490.735 172.169 485.987 182.607 477.753 190.305C469.871 197.671 459.699 201.681 448.971 201.681ZM469.655 100.551H469.669H469.655ZM436.611 226.967L456.623 227.654L463.251 218.057C463.63 217.507 464.191 217.111 464.835 216.938C468.522 215.946 472.181 214.545 475.709 212.77L475.727 212.761C476.315 212.471 477.001 212.382 477.671 212.557L487.057 214.946L501.691 201.281L499.941 191.717C499.817 191.042 499.945 190.345 500.298 189.757C502.229 186.553 503.866 183.038 505.166 179.311C505.379 178.65 505.831 178.094 506.419 177.747L516.45 171.79L517.137 151.778L507.531 145.145C507.029 144.798 506.654 144.297 506.461 143.719L506.395 143.494C505.391 139.817 503.995 136.203 502.243 132.754C501.934 132.145 501.858 131.445 502.026 130.783L504.431 121.346L490.765 106.709L481.179 108.463C480.507 108.587 479.815 108.461 479.23 108.111C475.897 106.122 472.377 104.479 468.769 103.223C468.565 103.154 468.358 103.059 468.181 102.95C467.791 102.711 467.467 102.382 467.235 101.99L461.273 91.95L441.259 91.2646L434.627 100.87C434.233 101.442 433.641 101.845 432.97 102.006C429.267 103.021 425.666 104.413 422.231 106.157C421.622 106.465 420.921 106.543 420.262 106.374L410.829 103.969L396.193 117.637L397.943 127.201C398.053 127.801 397.965 128.421 397.691 128.966L397.565 129.193C395.63 132.409 393.99 135.934 392.693 139.671C392.474 140.298 392.041 140.83 391.47 141.169L381.433 147.129L380.747 167.141L390.361 173.779C390.909 174.158 391.305 174.719 391.478 175.362C392.514 179.197 393.91 182.837 395.625 186.185C395.723 186.377 395.801 186.579 395.853 186.79C395.966 187.242 395.966 187.717 395.85 188.167L393.453 197.573L407.119 212.207L416.637 210.466C417.306 210.345 417.994 210.469 418.577 210.813C421.97 212.819 425.507 214.462 429.093 215.699C429.741 215.905 430.302 216.342 430.659 216.945L436.611 226.967ZM458.065 233.334H457.969L434.879 232.543C433.921 232.51 433.045 231.991 432.555 231.167L426.338 220.697C423.033 219.498 419.775 217.986 416.629 216.193L406.619 218.023C405.674 218.202 404.71 217.878 404.055 217.175L388.287 200.291C387.633 199.59 387.381 198.605 387.617 197.674L390.134 187.794C388.605 184.666 387.325 181.323 386.322 177.834L376.281 170.899C375.491 170.355 375.034 169.446 375.066 168.487L375.858 145.397C375.89 144.439 376.409 143.562 377.234 143.073L387.722 136.845C388.966 133.441 390.473 130.198 392.215 127.181L390.375 117.137C390.203 116.194 390.523 115.226 391.223 114.573L408.11 98.8033C408.811 98.1473 409.798 97.8966 410.727 98.1326L420.639 100.661C423.847 99.1007 427.179 97.8153 430.573 96.8326L437.501 86.798C438.046 86.0086 438.941 85.5207 439.914 85.5847L463.003 86.3766C463.962 86.4086 464.838 86.9273 465.327 87.7527L471.557 98.2406C474.866 99.4527 478.099 100.961 481.193 102.737L491.265 100.893C492.21 100.721 493.174 101.039 493.83 101.739L509.597 118.627C510.251 119.33 510.503 120.315 510.267 121.245L507.741 131.161C509.302 134.37 510.586 137.701 511.569 141.09L521.602 148.018C522.391 148.562 522.849 149.473 522.817 150.431L522.026 173.522C521.993 174.481 521.474 175.357 520.649 175.846L510.157 182.077C508.914 185.481 507.407 188.722 505.669 191.734L507.507 201.782C507.681 202.725 507.361 203.693 506.659 204.346L489.774 220.113C489.073 220.769 488.089 221.021 487.157 220.782L477.289 218.269C474.035 219.838 470.686 221.122 467.305 222.095L460.382 232.119C459.855 232.882 458.989 233.334 458.065 233.334Z" fill="#E7E8E5"/>
<path d="M511.252 67.1611L501.687 64.5918L499.119 55.0278L502.864 51.2838L506.815 59.4651L514.998 63.4158L511.252 67.1611Z" fill="#DADBD8"/>
<path d="M511.847 60.7578C513.588 59.0151 513.588 56.1751 511.845 54.4325C510.104 52.6911 507.276 52.7031 505.533 54.4445L510.291 47.3085L516.672 50.5338L518.071 57.2378L511.847 60.7578Z" fill="#DADBD8"/>
<path d="M514.836 57.7692C516.579 56.0252 516.579 53.1852 514.836 51.4425C513.093 49.7012 510.267 49.7146 508.524 51.4559C506.781 53.1986 506.781 56.0132 508.524 57.7559C510.267 59.4972 513.093 59.5105 514.836 57.7692ZM502.109 52.0385L509.119 45.0292L518.683 47.5972L521.251 57.1612L514.243 64.1719L504.677 61.6025L502.109 52.0385Z" fill="#EDEDEB"/>
<path d="M120.294 322.34L125.427 320.961L126.805 315.831L124.796 313.821L122.675 318.211L118.285 320.332L120.294 322.34Z" fill="#DADBD8"/>
<path d="M119.977 318.905C119.041 317.969 119.041 316.447 119.977 315.511C120.912 314.576 122.429 314.583 123.364 315.517L120.811 311.688L117.387 313.419L116.637 317.016L119.977 318.905Z" fill="#DADBD8"/>
<path d="M118.37 317.299C117.435 316.365 117.435 314.841 118.37 313.906C119.305 312.971 120.823 312.978 121.757 313.913C122.692 314.847 122.692 316.358 121.757 317.293C120.823 318.227 119.305 318.234 118.37 317.299ZM125.2 314.223L121.439 310.463L116.306 311.841L114.928 316.974L118.689 320.735L123.821 319.357L125.2 314.223Z" fill="#EDEDEB"/>
<path d="M101.816 40.9448L106.076 45.2061C107.185 46.3154 109 46.3154 110.11 45.2061C111.219 44.0968 111.219 42.2808 110.11 41.1714L105.85 36.9128C104.74 35.8034 102.925 35.8034 101.816 36.9128C100.707 38.0221 100.707 39.8354 101.816 40.9448Z" fill="#EDEDEB"/>
<path d="M98.8149 30.3359C102.098 29.1586 105.656 30.6999 106.763 33.7813C107.87 36.8626 106.106 40.3159 102.823 41.4946C99.5405 42.6733 95.9821 41.1319 94.8753 38.0519C93.7686 34.9693 95.5326 31.5159 98.8149 30.3359Z" fill="#DADBD8"/>
<path d="M94.1738 37.3331L94.7916 39.0518L107.468 34.4997L106.85 32.7811L94.1738 37.3331Z" fill="#EDEDEB"/>
<path d="M591.852 481.714C591.852 490.053 476.111 496.812 333.333 496.812C190.557 496.812 74.8145 490.053 74.8145 481.714C74.8145 473.376 190.557 466.616 333.333 466.616C476.111 466.616 591.852 473.376 591.852 481.714Z" fill="#F3F2F1"/>
<path d="M126.745 85.114C127.571 88.746 128.839 91.202 130.549 92.4807C132.258 93.762 134.275 94.1354 136.598 93.606C138.986 93.0647 140.658 91.8687 141.612 90.0167C142.568 88.166 142.588 85.2274 141.674 81.2047C140.903 77.8194 139.658 75.4994 137.938 74.2474C136.216 72.9967 134.187 72.6367 131.848 73.1687C129.607 73.678 127.988 74.882 126.992 76.7754C125.994 78.6714 125.912 81.45 126.745 85.114ZM115.62 87.5914C114.285 81.7207 114.881 76.7781 117.409 72.7607C119.936 68.7461 124.12 66.0754 129.959 64.7474C135.946 63.3874 140.923 63.9447 144.892 66.4234C148.862 68.9007 151.504 73.0341 152.82 78.8247C153.776 83.0287 153.852 86.6367 153.05 89.6487C152.247 92.6607 150.678 95.2207 148.344 97.3247C146.01 99.4301 142.847 100.934 138.856 101.841C134.8 102.765 131.296 102.882 128.344 102.194C125.393 101.506 122.773 99.9514 120.485 97.5287C118.197 95.1087 116.576 91.7954 115.62 87.5914Z" fill="#17282F"/>
<path d="M168.128 80.8925C168.655 83.2151 169.516 84.8258 170.71 85.7258C171.903 86.6231 173.211 86.9098 174.635 86.5871C176.074 86.2591 177.131 85.4418 177.806 84.1364C178.482 82.8298 178.543 80.9671 177.994 78.5485C177.48 76.2898 176.631 74.7151 175.448 73.8231C174.264 72.9311 172.986 72.6405 171.612 72.9525C170.156 73.2831 169.082 74.1178 168.388 75.4538C167.694 76.7885 167.607 78.6031 168.128 80.8925ZM158.123 83.1925C157.219 79.2178 157.816 75.6378 159.914 72.4511C162.01 69.2658 165.34 67.1538 169.903 66.1165C175.122 64.9311 179.407 65.5471 182.762 67.9671C185.458 69.9178 187.211 72.6751 188.022 76.2404C188.932 80.2498 188.351 83.8351 186.275 86.9991C184.199 90.1631 180.814 92.2778 176.119 93.3444C171.932 94.2964 168.304 94.0044 165.236 92.4644C161.464 90.5538 159.094 87.4618 158.123 83.1925Z" fill="#17282F"/>
<path d="M202.925 73.0074C203.393 75.0687 204.174 76.4994 205.268 77.3007C206.361 78.102 207.57 78.35 208.896 78.05C210.057 77.7847 210.921 77.086 211.489 75.95C212.056 74.8154 212.08 73.1034 211.56 70.8127C211.08 68.702 210.318 67.246 209.276 66.442C208.233 65.638 207.122 65.3714 205.945 65.638C204.669 65.9287 203.72 66.6714 203.096 67.8594C202.472 69.0514 202.414 70.7674 202.925 73.0074ZM198.113 98.1514L189.936 62.182L199.284 60.0567L200.158 63.9074C201.084 61.9967 202.02 60.6314 202.969 59.8127C204.25 58.714 205.774 57.962 207.541 57.5607C211.025 56.7687 214.022 57.49 216.533 59.7207C219.045 61.954 220.748 65.034 221.64 68.9594C222.625 73.294 222.338 76.838 220.78 79.5927C219.221 82.346 216.856 84.0847 213.682 84.806C212.145 85.1554 210.682 85.2127 209.296 84.9767C207.909 84.7407 206.6 84.2234 205.369 83.4194L208.197 95.858L198.113 98.1514Z" fill="#17282F"/>
<path d="M225.913 73.7939L235.613 70.6085C236.289 71.6925 237.053 72.4045 237.905 72.7459C238.755 73.0845 239.795 73.1165 241.022 72.8379C242.362 72.5312 243.337 72.0099 243.942 71.2712C244.418 70.7165 244.583 70.1205 244.438 69.4832C244.275 68.7645 243.773 68.2939 242.931 68.0739C242.329 67.9192 240.819 67.9019 238.405 68.0205C234.799 68.2059 232.263 68.1925 230.797 67.9859C229.33 67.7752 227.995 67.1659 226.793 66.1499C225.591 65.1352 224.811 63.8405 224.454 62.2725C224.065 60.5565 224.227 58.9659 224.942 57.4965C225.658 56.0285 226.821 54.7872 228.431 53.7779C230.042 52.7672 232.319 51.9272 235.263 51.2579C238.373 50.5512 240.719 50.2685 242.309 50.4045C243.897 50.5432 245.298 50.9992 246.514 51.7712C247.731 52.5445 248.859 53.7059 249.901 55.2592L240.642 58.3445C240.207 57.5645 239.659 57.0459 238.998 56.7832C238.093 56.4379 237.085 56.3899 235.973 56.6445C234.845 56.9005 234.069 57.2872 233.643 57.8045C233.219 58.3219 233.071 58.8672 233.202 59.4392C233.346 60.0752 233.783 60.4832 234.513 60.6605C235.241 60.8392 236.73 60.8085 238.982 60.5712C242.387 60.1939 244.977 60.1552 246.747 60.4565C248.519 60.7579 249.975 61.4339 251.117 62.4792C252.258 63.5259 252.997 64.7925 253.335 66.2805C253.677 67.7832 253.555 69.3485 252.971 70.9765C252.386 72.6045 251.211 74.0605 249.449 75.3472C247.686 76.6312 245.119 77.6592 241.75 78.4259C236.99 79.5072 233.446 79.5979 231.118 78.7005C228.789 77.8019 227.054 76.1659 225.913 73.7939Z" fill="#17282F"/>
<path d="M259 68.6692L269.214 68.6118L269.265 77.6425L259.05 77.7012L259 68.6692ZM258.465 40.8185L269.409 40.7572L269.457 49.1612L267.438 66.0545L260.67 66.0932L258.513 49.2212L258.465 40.8185Z" fill="#17282F"/>
<path d="M145.691 123.727C145.466 123.935 144.818 124.773 143.888 128.021C142.662 132.305 143.418 136.213 144.858 139.016C145.134 138.439 145.326 137.772 145.458 137.147C146.84 130.6 146.438 124.675 145.691 123.727ZM154.472 127.928C154.127 128.575 153.55 129.907 152.686 132.633C151.54 136.244 151.535 139.145 152.172 141.364L152.296 141.029C153.864 136.445 154.628 130.129 154.472 127.928ZM164.035 133.545C164.031 133.545 163.28 133.551 161.599 136.673C159.67 140.253 159.179 143.2 160.095 145.683C160.207 145.987 160.34 146.283 160.496 146.576C161.208 146.272 161.818 145.776 162.258 145.104C164.124 142.249 165.019 136.387 164.324 134.095C164.182 133.625 164.036 133.545 164.035 133.545ZM171.574 155.504L171.334 155.459C165.332 153.135 161.742 150.864 159.876 148.136C158.522 148.408 157.006 148.228 155.567 147.544C154.17 146.88 152.826 145.719 151.86 144.048C150.959 144.741 149.847 144.932 148.626 144.548C147.271 144.121 145.862 142.981 144.69 141.333C143.944 141.872 143.18 141.952 142.62 141.905C138.656 141.583 133.285 133.692 132.899 125.284C132.882 124.916 133.167 124.604 133.535 124.588C133.895 124.557 134.215 124.855 134.231 125.224C134.596 133.204 139.711 140.332 142.728 140.576C143.218 140.624 143.627 140.471 143.971 140.204C142.159 137.027 141.22 132.495 142.607 127.655C143.754 123.648 144.766 122.081 145.983 122.372C148.279 122.943 147.978 131.667 146.762 137.423C146.486 138.727 146.088 139.664 145.635 140.333C146.687 141.887 147.934 142.932 149.026 143.276C150 143.581 150.723 143.323 151.258 142.815C150.21 140.233 149.992 136.716 151.415 132.229C153.286 126.325 154.039 126.164 154.49 126.069C154.807 126.003 155.124 126.107 155.35 126.363C156.582 127.753 155.11 136.925 153.558 141.461C153.356 142.052 153.106 142.567 152.815 143.004C153.643 144.627 154.862 145.732 156.139 146.339C157.163 146.827 158.214 147.003 159.17 146.913C159.05 146.661 158.942 146.405 158.844 146.145C157.788 143.281 158.304 139.977 160.424 136.041C161.831 133.431 162.978 132.213 164.034 132.212H164.035C164.35 132.212 164.935 132.328 165.351 133.095C166.514 135.24 165.671 142.32 163.374 145.833C162.832 146.661 162.084 147.288 161.216 147.697C163.003 150.047 166.395 152.116 171.815 154.217C172.158 154.349 172.328 154.735 172.195 155.079C172.094 155.343 171.84 155.504 171.574 155.504Z" fill="#17282F"/>
<path d="M225.734 210.48C225.809 210.688 226.106 211.236 227.289 212.33C229.271 214.162 231.073 214.977 232.797 214.788C232.939 214.774 233.082 214.753 233.223 214.724C233.129 214.32 232.937 213.945 232.645 213.624C230.769 211.568 226.645 210.266 225.734 210.48ZM221.081 216.145C221.529 216.476 222.171 216.913 223.089 217.488C224.898 218.618 226.512 219.141 227.89 219.25C225.68 217.881 222.79 216.668 221.081 216.145ZM222.265 225.392C220.231 225.392 218.093 224.929 216.183 223.808C215.865 223.62 215.759 223.213 215.945 222.894C216.131 222.576 216.541 222.473 216.858 222.657C221.614 225.449 227.762 223.501 229.027 221.466C229.174 221.228 229.309 220.925 229.224 220.572C227.342 220.772 225.029 220.273 222.382 218.617C218.989 216.497 218.727 215.866 218.749 215.361C218.762 215.062 218.931 214.802 219.203 214.664C220.53 213.99 226.543 216.762 229.05 218.409C229.378 218.625 229.655 218.858 229.879 219.106C230.987 218.836 231.846 218.264 232.417 217.578C232.807 217.109 233.07 216.596 233.199 216.082L232.933 216.114C230.801 216.33 228.662 215.414 226.385 213.309C224.819 211.862 224.211 210.865 224.414 210.074C224.478 209.824 224.689 209.374 225.371 209.204C227.217 208.745 231.769 210.685 233.63 212.725C234.049 213.184 234.334 213.724 234.485 214.304C236.225 213.486 238.065 211.653 240.243 208.609C240.458 208.309 240.874 208.24 241.174 208.454C241.473 208.668 241.542 209.085 241.329 209.385C238.809 212.904 236.709 214.898 234.599 215.713C234.517 216.652 234.129 217.606 233.441 218.433C232.765 219.242 231.779 219.938 230.533 220.314C230.666 220.914 230.546 221.549 230.159 222.169C229.035 223.98 225.811 225.392 222.265 225.392Z" fill="#17282F"/>
<path d="M134.792 242.661L169.404 181.904L179.061 234.619L134.792 242.661ZM239.922 223.563L219.146 227.336L200.284 124.388L160.2 131.669L94.8809 247.668L101.894 285.945L185.677 270.725L191.413 302.033L231.498 294.752L225.762 263.445L246.538 259.669L239.922 223.563Z" fill="#40AD87"/>
<path d="M407.24 117.385C406.466 110.273 405.044 103.953 402.978 98.4278C400.912 92.9011 397.806 87.4838 393.658 82.1745C389.511 76.8665 383.864 72.2598 376.719 68.3531C369.572 64.4505 360.14 61.7305 348.423 60.2038C324.034 57.0264 305.02 61.3558 291.38 73.1905C277.739 85.0265 268.764 107.698 264.45 141.206C262.695 154.834 262.26 167.432 263.148 179C264.031 190.565 266.154 199.869 269.518 206.909C274.119 216.801 280.631 224.701 289.05 230.605C297.467 236.509 309 240.418 323.65 242.328C349.779 245.73 369.143 240.716 381.742 227.277C394.339 213.84 402.698 191.128 406.815 159.142C408.652 144.874 408.794 130.954 407.24 117.385Z" fill="#40AD87"/>
<path d="M335.688 228.641C332.481 228.531 329.068 228.241 325.544 227.781C313.339 226.193 303.895 223.104 297.473 218.599C291.139 214.156 286.344 208.311 282.817 200.724L282.751 200.587C280.188 195.223 278.513 187.581 277.772 177.883C276.965 167.365 277.377 155.656 278.996 143.079C283.755 106.117 293.584 90.6959 300.992 84.2692C309.629 76.7759 321.287 73.3879 336.632 73.9146C339.776 74.0213 343.105 74.3026 346.527 74.7479C356.376 76.0306 364.168 78.2106 369.688 81.2239C375.033 84.1466 379.209 87.5052 382.1 91.2052C385.305 95.3066 387.707 99.4639 389.239 103.563C390.869 107.924 392.02 113.109 392.66 118.973C394.08 131.385 393.945 144.245 392.269 157.269C388.572 185.988 381.429 206.167 371.043 217.244C363.337 225.464 351.773 229.192 335.691 228.641H335.688Z" fill="#17282F"/>
<path d="M327.655 134.139C316.595 133.761 307.934 124.486 308.314 113.425C308.692 102.351 317.968 93.6913 329.028 94.0699C340.088 94.4499 348.75 103.723 348.37 114.797C347.991 125.858 338.715 134.518 327.655 134.139ZM361.782 117.778L361.955 112.727L358.853 111.715C358.727 109.99 358.437 108.285 358.027 106.643L360.655 104.706L358.871 99.9619L355.619 100.223C354.844 98.6899 353.934 97.2299 352.914 95.8619L354.597 93.0513L351.135 89.3579L348.229 90.8446C346.92 89.7326 345.54 88.7259 344.063 87.8353L344.533 84.6086L339.923 82.5153L337.811 84.9926C336.2 84.4699 334.534 84.0793 332.808 83.8206L332.021 80.6579L326.959 80.4846L325.959 83.5846C324.219 83.7259 322.528 84.0019 320.887 84.4113L318.935 81.7966L314.192 83.5686L314.453 86.8206C312.92 87.6086 311.46 88.5179 310.092 89.5393L307.295 87.8553L303.587 91.3033L305.075 94.2233C303.963 95.5179 302.955 96.9113 302.078 98.3899L298.852 97.9046L296.747 102.515L299.235 104.629C298.713 106.239 298.308 107.919 298.063 109.631L294.887 110.43L294.715 115.481L297.828 116.494C297.955 118.233 298.244 119.925 298.655 121.565L296.027 123.505L297.812 128.247L301.063 127.986C301.837 129.519 302.748 130.978 303.769 132.347L302.084 135.158L305.547 138.851L308.453 137.363C309.749 138.475 311.141 139.485 312.619 140.375L312.135 143.601L316.746 145.693L318.872 143.218C320.482 143.739 322.15 144.13 323.875 144.39L324.66 147.551L329.724 147.725L330.724 144.623C332.463 144.483 334.153 144.209 335.795 143.797L337.733 146.411L342.478 144.639L342.228 141.39C343.763 140.602 345.208 139.69 346.591 138.67L349.388 140.354L353.095 136.905L351.608 133.987C352.719 132.69 353.727 131.297 354.606 129.819L357.831 130.305L359.936 125.693L357.447 123.579C357.97 121.97 358.373 120.303 358.619 118.577L361.782 117.778Z" fill="#40AD87"/>
<path d="M359.676 229.119L356.272 228.738L355.895 226.555C355.812 226.536 355.73 226.518 355.648 226.498C361.902 224.627 367.003 221.552 371.042 217.243C375.246 212.759 378.919 206.784 382.047 199.355L382.712 201.667L380.846 202.851C381.042 203.982 381.142 205.14 381.148 206.311L383.195 207.144L382.83 210.55L380.632 210.927C380.375 212.042 380.04 213.138 379.598 214.23L381.167 215.782L379.52 218.783L377.367 218.304C376.679 219.264 375.931 220.143 375.123 220.958L375.99 223L373.31 225.14L371.514 223.862C370.524 224.483 369.492 225.008 368.431 225.456L368.434 227.671L365.155 228.636L363.971 226.755C362.826 226.95 361.667 227.066 360.512 227.072L359.676 229.119Z" fill="#40AD87"/>
<path d="M351.024 227.093L348.023 225.445L348.518 223.275C347.558 222.605 346.679 221.855 345.864 221.049L343.806 221.914L341.666 219.234L342.946 217.422C342.323 216.449 341.798 215.417 341.35 214.355L339.134 214.358L338.17 211.063L340.052 209.881C339.856 208.75 339.74 207.591 339.748 206.437L337.703 205.586L338.068 202.182L340.25 201.821C340.507 200.69 340.856 199.594 341.3 198.501L339.731 196.949L341.378 193.947L343.53 194.427C344.203 193.467 344.966 192.589 345.759 191.773L344.908 189.73L347.571 187.59L349.384 188.87C350.374 188.249 351.406 187.722 352.467 187.275L352.448 185.058L355.743 184.095L356.927 185.977C358.072 185.781 359.215 185.665 360.386 185.658L361.22 183.613L364.624 183.994L365.003 186.174C366.118 186.431 367.23 186.766 368.306 187.223L369.874 185.639L372.875 187.286L372.379 189.455C373.34 190.127 374.219 190.875 375.034 191.683L377.076 190.833L379.216 193.497L377.952 195.31C378.575 196.282 379.1 197.315 379.547 198.391L381.763 198.374L382.047 199.355C378.919 206.785 375.246 212.759 371.042 217.243C367.003 221.553 361.902 224.627 355.648 226.498C354.616 226.25 353.588 225.933 352.591 225.523L351.024 227.093ZM360.443 200.422C358.346 200.422 356.315 201.534 355.234 203.503C353.652 206.383 354.699 210.006 357.578 211.589C358.484 212.086 359.463 212.322 360.43 212.322C362.535 212.322 364.58 211.202 365.664 209.227C367.244 206.349 366.183 202.739 363.303 201.159C362.394 200.659 361.411 200.422 360.443 200.422Z" fill="#40AD87"/>
<path d="M375.411 165.761C370.163 165.581 366.064 161.176 366.243 155.944C366.423 150.696 370.814 146.596 376.06 146.776C381.308 146.954 385.408 151.345 385.228 156.594C385.05 161.826 380.658 165.941 375.411 165.761ZM401.719 152.929L397.744 150.184L397.742 150.174C397.348 148.73 396.806 147.34 396.143 146.034L397.162 142.038L391.398 135.865L387.339 136.608C386.083 135.857 384.734 135.222 383.322 134.73L383.311 134.728L380.844 130.573L372.402 130.284L369.658 134.258L369.642 134.262C368.199 134.656 366.811 135.197 365.507 135.858L361.512 134.84L355.338 140.606L356.081 144.656L356.078 144.66C355.312 145.93 354.691 147.28 354.2 148.692L350.047 151.158L349.758 159.601L353.735 162.346C354.128 163.801 354.654 165.188 355.33 166.505V166.506L354.315 170.49L360.079 176.665L364.112 175.926C365.384 176.678 366.735 177.316 368.166 177.806L368.168 177.808L370.632 181.956L379.074 182.245L381.816 178.274C383.276 177.881 384.666 177.338 385.987 176.674H385.988L389.964 177.688L396.138 171.924L395.396 167.873C396.162 166.602 396.783 165.252 397.274 163.838L401.43 161.37L401.719 152.929Z" fill="white"/>
<path d="M423.938 76.9125C423.591 74.9711 424.886 73.1191 426.822 72.7725C428.763 72.4258 430.614 73.7151 430.961 75.6565C431.309 77.5965 430.019 79.4471 428.078 79.7951C426.142 80.1418 424.286 78.8525 423.938 76.9125ZM430.722 85.5605L431.418 83.8871L431.421 83.8845C431.919 83.6258 432.387 83.3178 432.815 82.9711L434.362 83.0311L436.175 80.4271L435.583 78.9965C435.759 78.4751 435.887 77.9311 435.955 77.3725L435.957 77.3685L437.287 76.1351L436.729 73.0125L435.053 72.3191L435.05 72.3138C434.793 71.8151 434.485 71.3471 434.138 70.9205L434.198 69.3738L431.594 67.5605L430.166 68.1525L430.165 68.1511C429.638 67.9698 429.093 67.8485 428.535 67.7805L427.303 66.4498L424.181 67.0071L423.485 68.6845C422.982 68.9418 422.514 69.2458 422.083 69.5978L420.541 69.5391L418.727 72.1418L419.317 73.5631C419.141 74.0911 419.013 74.6365 418.945 75.2005V75.2018L417.615 76.4338L418.174 79.5565L419.849 80.2498C420.107 80.7551 420.417 81.2231 420.763 81.6551L420.765 81.6565L420.706 83.1951L423.309 85.0085L424.737 84.4178C425.265 84.5991 425.809 84.7205 426.366 84.7885H426.367L427.601 86.1191L430.722 85.5605Z" fill="#40AD87"/>
<path d="M394.142 76.7158L393.125 75.8558C394.894 73.7598 397.405 71.1038 401.136 69.1505L401.753 70.3331C397.777 72.4131 395.23 75.4292 394.142 76.7158Z" fill="#40AD87"/>
<path d="M404.788 69.1318L404.262 67.9052C409.306 65.7452 414.575 64.9025 419.914 65.3985L419.79 66.7265C414.67 66.2385 409.624 67.0572 404.788 69.1318Z" fill="#40AD87"/>
<path d="M402.271 78.3555L401.168 77.6061C403.907 73.5835 409.319 70.0808 414.331 69.0875L414.589 70.3941C409.893 71.3275 404.828 74.6008 402.271 78.3555Z" fill="#40AD87"/>
<path d="M299.154 170.281C296.73 173.94 295.876 178.324 296.75 182.625C297.624 186.927 300.12 190.631 303.778 193.056C311.333 198.06 321.55 195.991 326.553 188.44C331.558 180.888 329.488 170.667 321.937 165.657C314.388 160.653 304.168 162.727 299.154 170.281ZM312.832 197.119C309.461 197.119 306.056 196.165 303.041 194.168C299.086 191.547 296.388 187.541 295.444 182.891C294.498 178.24 295.422 173.501 298.042 169.545H298.044C303.464 161.379 314.513 159.136 322.673 164.545C330.837 169.961 333.076 181.011 327.665 189.176C324.252 194.328 318.593 197.119 312.832 197.119ZM306.274 201.433L306.462 201.46C307.89 201.88 309.376 202.157 310.877 202.281C311.038 202.295 311.189 202.367 311.301 202.483L314.014 205.28L321.884 203.684L323.297 200.041C323.356 199.891 323.468 199.765 323.61 199.691C324.948 198.995 326.21 198.165 327.364 197.224C327.485 197.124 327.622 197.057 327.796 197.073L332.422 197.144L336.858 190.451L334.986 186.207C334.922 186.063 334.913 185.901 334.957 185.751C335.378 184.296 335.654 182.811 335.777 181.336C335.79 181.175 335.861 181.025 335.977 180.912L338.777 178.197L337.181 170.329L333.545 168.919C333.39 168.859 333.264 168.744 333.19 168.596C332.497 167.263 331.666 166.004 330.722 164.855C330.622 164.732 330.568 164.579 330.57 164.421L330.641 159.789L323.949 155.353L319.714 157.221C319.57 157.283 319.41 157.293 319.26 157.252C317.814 156.832 316.324 156.556 314.829 156.431C314.668 156.417 314.518 156.345 314.406 156.231L311.694 153.436L303.826 155.032L302.417 158.668C302.358 158.819 302.246 158.944 302.102 159.017C300.774 159.709 299.51 160.541 298.346 161.491C298.225 161.589 298.062 161.66 297.913 161.643L293.286 161.571L288.852 168.265L290.721 172.503C290.801 172.685 290.796 172.893 290.708 173.071C290.332 174.403 290.056 175.891 289.93 177.383C289.917 177.543 289.846 177.692 289.73 177.805L286.933 180.519L288.528 188.388L292.162 189.796C292.325 189.859 292.456 189.983 292.528 190.139C293.218 191.461 294.046 192.717 294.985 193.86C295.085 193.983 295.141 194.139 295.138 194.296L295.068 198.925L301.761 203.363L306.005 201.491L306.274 201.433ZM313.79 206.672C313.612 206.672 313.438 206.601 313.312 206.469L310.516 203.588C309.092 203.453 307.684 203.192 306.322 202.807L301.965 204.728C301.758 204.824 301.518 204.799 301.328 204.675L294.028 199.835C293.838 199.709 293.726 199.497 293.729 199.269L293.802 194.517C292.916 193.413 292.124 192.216 291.446 190.948L287.706 189.499C287.496 189.416 287.34 189.232 287.294 189.009L285.554 180.427C285.509 180.204 285.581 179.973 285.744 179.815L288.625 177.02C288.758 175.604 289.02 174.193 289.404 172.821L287.484 168.469C287.392 168.261 287.413 168.021 287.538 167.832L292.377 160.531C292.502 160.341 292.68 160.224 292.944 160.232L297.692 160.305C298.806 159.415 300.006 158.624 301.264 157.952L302.714 154.211C302.797 153.999 302.981 153.843 303.204 153.797L311.786 152.057C312.01 152.013 312.24 152.084 312.398 152.245L315.19 155.124C316.609 155.257 318.021 155.52 319.394 155.904L323.745 153.987C323.952 153.895 324.192 153.916 324.382 154.041L331.682 158.88C331.872 159.005 331.984 159.219 331.98 159.447L331.908 164.2C332.796 165.305 333.585 166.503 334.26 167.767L338.002 169.219C338.216 169.3 338.37 169.484 338.416 169.707L340.156 178.289C340.201 178.512 340.129 178.743 339.966 178.901L337.084 181.697C336.952 183.099 336.69 184.505 336.304 185.889L338.225 190.247C338.317 190.455 338.297 190.696 338.172 190.885L333.333 198.184C333.208 198.373 333.008 198.468 332.768 198.483L328.017 198.411C326.91 199.293 325.712 200.081 324.449 200.756L322.996 204.505C322.913 204.719 322.728 204.873 322.506 204.919L313.922 206.66L313.79 206.672Z" fill="white"/>
<path d="M461.878 221.305L513.555 174.201L506.467 227.323L461.878 221.305ZM567.769 235.595L546.843 232.771L560.683 129.026L520.309 123.578L422.371 213.746L417.225 252.319L501.614 263.709L497.405 295.258L537.781 300.706L541.989 269.158L562.915 271.981L567.769 235.595Z" fill="#40AD87"/>
<path d="M525.513 299.718L525.391 299.707C525.03 299.64 524.79 299.292 524.857 298.931L555.958 128.358C556.024 127.996 556.374 127.771 556.733 127.822C557.096 127.887 557.335 128.235 557.269 128.598L526.168 299.17C526.109 299.492 525.829 299.718 525.513 299.718Z" fill="#17282F"/>
<path d="M553.108 131.223C553.088 131.826 552.583 132.296 551.979 132.278C551.376 132.256 550.904 131.75 550.924 131.147C550.946 130.544 551.451 130.071 552.054 130.092C552.658 130.114 553.13 130.618 553.108 131.223Z" fill="#17282F"/>
<path d="M548.665 154.29C548.644 154.893 548.139 155.365 547.536 155.345C546.932 155.325 546.46 154.818 546.481 154.216C546.501 153.613 547.008 153.14 547.611 153.161C548.213 153.181 548.685 153.688 548.665 154.29Z" fill="#17282F"/>
<path d="M544.222 177.358C544.202 177.96 543.695 178.432 543.092 178.412C542.49 178.391 542.018 177.886 542.038 177.282C542.059 176.679 542.564 176.207 543.167 176.227C543.771 176.248 544.243 176.755 544.222 177.358Z" fill="#17282F"/>
<path d="M535.483 201.371C535.463 201.974 534.958 202.446 534.354 202.426C533.751 202.405 533.279 201.899 533.299 201.297C533.321 200.694 533.826 200.222 534.429 200.242C535.033 200.263 535.505 200.769 535.483 201.371Z" fill="#17282F"/>
<path d="M535.334 223.495C535.314 224.097 534.808 224.568 534.204 224.549C533.602 224.528 533.13 224.021 533.151 223.419C533.171 222.816 533.676 222.343 534.279 222.364C534.883 222.385 535.355 222.891 535.334 223.495Z" fill="#17282F"/>
<path d="M530.892 246.561C530.87 247.165 530.365 247.636 529.762 247.616C529.16 247.596 528.686 247.089 528.708 246.486C528.728 245.884 529.234 245.412 529.837 245.432C530.44 245.452 530.912 245.958 530.892 246.561Z" fill="#17282F"/>
<path d="M526.448 269.629C526.428 270.232 525.923 270.705 525.32 270.684C524.716 270.664 524.244 270.157 524.264 269.555C524.286 268.951 524.791 268.48 525.394 268.5C525.998 268.52 526.47 269.027 526.448 269.629Z" fill="#17282F"/>
<path d="M522.005 292.697C521.985 293.299 521.478 293.773 520.876 293.751C520.273 293.73 519.801 293.223 519.821 292.621C519.842 292.018 520.348 291.547 520.95 291.566C521.553 291.587 522.026 292.094 522.005 292.697Z" fill="#17282F"/>
<path d="M534.392 202.001C534.084 202.001 533.808 201.788 533.742 201.474C533.664 201.114 533.892 200.761 534.252 200.682L537.564 199.972C537.93 199.9 538.279 200.122 538.356 200.485C538.434 200.844 538.204 201.198 537.844 201.277L534.532 201.988L534.392 202.001Z" fill="#17282F"/>
<path d="M545.446 189.718C545.446 189.718 542.462 197.49 541.458 202.198C540.453 206.908 540.393 217.432 540.393 217.432" fill="#17282F"/>
<path d="M540.393 218.099H540.389C540.021 218.096 539.724 217.796 539.727 217.428C539.729 216.996 539.799 206.781 540.807 202.059C541.811 197.353 544.701 189.799 544.824 189.479C544.956 189.136 545.34 188.965 545.685 189.096C546.029 189.227 546.201 189.613 546.069 189.956C546.039 190.035 543.092 197.735 542.111 202.337C541.132 206.928 541.06 217.332 541.06 217.436C541.057 217.803 540.76 218.099 540.393 218.099Z" fill="#17282F"/>
<path d="M296.604 333.184C298.456 303.314 295.049 249.016 351.196 256.204C411.377 263.906 394.16 334.278 394.16 334.278L296.604 333.184Z" fill="#17282F"/>
<path d="M359.853 290.729C359.853 304.261 348.884 315.229 335.353 315.229C321.821 315.229 310.852 304.261 310.852 290.729C310.852 277.198 321.821 266.229 335.353 266.229C348.884 266.229 359.853 277.198 359.853 290.729Z" fill="white"/>
<path d="M338.57 266.269C326.966 264.285 314.557 272.84 313.334 281.507L359.343 285.737C357.722 275.859 347.778 267.84 338.57 266.269Z" fill="#17282F"/>
<path d="M354.102 290.119C353.772 296.525 350.282 301.553 346.304 301.347C342.327 301.143 339.37 295.785 339.699 289.381C340.027 282.975 343.518 277.947 347.495 278.153C351.472 278.355 354.431 283.714 354.102 290.119Z" fill="#17282F"/>
<path d="M335.352 267.563C322.578 267.563 312.184 277.955 312.184 290.729C312.184 303.504 322.578 313.896 335.352 313.896C348.126 313.896 358.519 303.504 358.519 290.729C358.519 277.955 348.126 267.563 335.352 267.563ZM335.352 316.562C321.107 316.562 309.518 304.975 309.518 290.729C309.518 276.485 321.107 264.896 335.352 264.896C349.596 264.896 361.186 276.485 361.186 290.729C361.186 304.975 349.596 316.562 335.352 316.562Z" fill="#40AD87"/>
<path d="M389.436 322.197L388.101 322.168C388.778 315.177 388.98 305.156 386.546 295.072C386.46 294.715 386.68 294.355 387.037 294.268C387.088 294.256 387.138 294.251 387.188 294.251C387.489 294.251 387.768 294.452 387.841 294.76C390.305 304.96 390.116 315.095 389.436 322.197Z" fill="#57666B"/>
<path d="M383.597 285.074C383.344 285.074 383.102 284.93 382.99 284.685C381.276 280.945 379.149 277.509 376.668 274.476C376.436 274.19 376.477 273.772 376.762 273.538C376.886 273.436 377.036 273.386 377.185 273.386C377.377 273.386 377.569 273.47 377.701 273.632C380.253 276.753 382.441 280.285 384.202 284.13C384.357 284.465 384.209 284.861 383.874 285.013L383.597 285.074Z" fill="#57666B"/>
<path d="M171.646 473.286C171.479 473.286 171.315 473.285 171.15 473.281C167.469 473.178 164.567 470.113 164.669 466.433C164.769 462.753 167.801 459.906 171.515 459.952L171.643 459.953C175.495 459.953 184.762 455.274 204.147 424.714C205.19 423.073 206.895 421.968 208.819 421.688C210.746 421.414 212.693 421.985 214.159 423.261C238.081 444.117 263.43 457.101 263.683 457.229C266.966 458.895 268.275 462.909 266.61 466.19C264.943 469.473 260.931 470.786 257.65 469.118C256.643 468.609 234.486 457.279 211.253 438.257C195.005 462.682 182.947 473.286 171.646 473.286Z" fill="#17282F"/>
<path d="M212.893 422.062C212.705 422.062 212.514 422.05 212.322 422.022C210.135 421.71 208.615 419.684 208.929 417.497C209.877 410.861 208.701 385.996 200.295 366.662C199.529 364.9 200.123 362.843 201.711 361.761C219.975 349.315 258.879 347.827 260.527 347.769C262.723 347.721 264.586 349.42 264.663 351.627C264.741 353.835 263.013 355.687 260.806 355.764C260.445 355.777 226.433 357.081 208.955 366.7C216.401 385.95 218.087 409.948 216.847 418.629C216.562 420.624 214.851 422.062 212.893 422.062Z" fill="#17282F"/>
<path d="M219.613 416.885C216.952 410.61 204.962 411.322 197.922 416.7C194.16 419.573 189.068 428.221 188.532 431.354C187.997 434.489 190.169 437.329 193.897 437.005C198.493 436.608 204.805 429.928 204.805 429.928C200.606 434.045 206.024 436.949 214.108 430.997C218.592 427.693 222.592 423.91 219.613 416.885Z" fill="#40AD87"/>
<path d="M462.302 306.249C462.902 306.473 463.583 306.605 464.218 306.68C470.861 307.467 476.727 306.537 477.605 305.709C477.378 305.504 476.483 304.933 473.166 304.299C468.789 303.465 464.965 304.563 462.302 306.249ZM460.619 313.745L460.965 313.839C465.671 314.992 472.029 315.188 474.209 314.831C473.533 314.545 472.154 314.089 469.361 313.473C465.663 312.659 462.773 312.912 460.619 313.745ZM456.174 322.503C456.542 323.185 457.09 323.748 457.801 324.125C460.809 325.727 466.729 326.093 468.949 325.197C469.403 325.013 469.471 324.861 469.471 324.86C469.471 324.856 469.398 324.111 466.137 322.715C462.399 321.116 459.418 320.892 457.029 322.024C456.737 322.164 456.451 322.323 456.174 322.503ZM448.941 334.945L448.755 334.919C448.402 334.817 448.198 334.447 448.299 334.095C450.075 327.908 452.015 324.128 454.566 322.027C454.175 320.699 454.219 319.173 454.77 317.681C455.306 316.229 456.342 314.787 457.918 313.675C457.146 312.84 456.859 311.748 457.131 310.5C457.434 309.112 458.443 307.607 459.979 306.291C459.377 305.597 459.229 304.84 459.223 304.281C459.19 300.304 466.567 294.247 474.907 293.109C475.273 293.041 475.609 293.313 475.658 293.679C475.707 294.044 475.451 294.38 475.086 294.429C467.17 295.509 460.531 301.241 460.557 304.269C460.561 304.76 460.743 305.155 461.039 305.473C464.042 303.384 468.473 302.04 473.415 302.989C477.509 303.772 479.173 304.636 478.979 305.879C478.617 308.216 469.901 308.699 464.059 308.003C462.737 307.845 461.767 307.533 461.059 307.143C459.607 308.331 458.678 309.664 458.434 310.783C458.217 311.783 458.539 312.479 459.094 312.964C461.57 311.688 465.054 311.155 469.649 312.171C475.698 313.505 475.925 314.243 476.059 314.681C476.157 314.996 476.078 315.317 475.845 315.564C474.57 316.915 465.303 316.275 460.647 315.133C460.042 314.985 459.506 314.783 459.045 314.532C457.501 315.503 456.51 316.816 456.021 318.143C455.629 319.207 455.539 320.267 455.721 321.213C455.961 321.069 456.205 320.94 456.455 320.82C459.214 319.511 462.551 319.729 466.661 321.488C469.387 322.656 470.702 323.688 470.798 324.74C470.827 325.052 470.766 325.647 470.038 326.129C468.005 327.48 460.878 327.276 457.173 325.303C456.299 324.836 455.607 324.149 455.122 323.321C452.942 325.312 451.185 328.876 449.581 334.461C449.497 334.755 449.23 334.945 448.941 334.945Z" fill="#17282F"/>
<path d="M275.37 471.059C276.248 470.779 275.954 469.931 274.973 469.931H256.921C222.546 466.29 198.529 471.17 213.664 472.319C228.797 473.47 212.597 473.229 201.545 477.409C190.494 481.59 283.75 482.645 292.233 477.409C300.056 472.582 263.189 474.963 275.37 471.059Z" fill="#17282F"/>
<path d="M404.625 476.381L247.556 471.173L241.037 318.878L426.518 323.026L404.625 476.381Z" fill="#40AD87"/>
<path d="M296.602 473.466C296.258 473.466 295.966 473.203 295.938 472.854L283.346 319.892C283.317 319.526 283.589 319.204 283.957 319.174C284.333 319.154 284.646 319.417 284.675 319.783L297.267 472.744C297.297 473.112 297.025 473.434 296.657 473.463L296.602 473.466Z" fill="#17282F"/>
<path d="M404.625 476.381L446.841 469.953L460.138 328.34L426.518 323.026L404.625 476.381Z" fill="#40AD87"/>
<path d="M404.625 476.381L406.274 464.829C406.456 464.824 406.634 464.821 406.808 464.821C411.882 464.821 413.65 467.121 413.748 467.255C413.638 467.105 413.594 467.012 413.594 467.012L425.072 460.226C424.821 459.802 420.072 452.059 408.174 451.513L426.518 323.026L460.138 328.34L455.588 376.795L455.557 377.129L449.973 436.594L449.942 436.928L448.608 451.137L448.577 451.47L446.841 469.953L404.625 476.381Z" fill="#81D6B8"/>
<path d="M260.979 441.818L257.107 351.334C256.703 341.892 264.366 334.069 273.816 334.281L391.228 336.906C401.032 337.126 408.442 345.865 407.056 355.573L394.039 446.762C392.859 455.026 385.646 461.076 377.303 460.8L276.782 457.468C268.232 457.183 261.346 450.362 260.979 441.818Z" fill="#17282F"/>
<path d="M273.662 362.047L291.828 362.625L291.678 367.309L280.306 366.947L280.196 370.433L290.745 370.769L290.602 375.242L280.053 374.907L279.916 379.231L291.617 379.605L291.458 384.571L272.965 383.983L273.662 362.047Z" fill="white"/>
<path d="M302.423 371.859L305.281 371.95C305.59 371.959 306.191 371.88 307.086 371.709C307.538 371.633 307.911 371.415 308.207 371.055C308.503 370.695 308.659 370.275 308.674 369.797C308.697 369.088 308.49 368.538 308.053 368.145C307.617 367.751 306.779 367.534 305.542 367.495L302.565 367.399L302.423 371.859ZM295.199 384.69L295.898 362.754L307.194 363.114C309.29 363.181 310.885 363.411 311.981 363.806C313.077 364.199 313.947 364.894 314.595 365.888C315.243 366.883 315.545 368.078 315.499 369.474C315.461 370.692 315.167 371.733 314.621 372.599C314.074 373.466 313.338 374.159 312.411 374.678C311.822 375.009 311.019 375.274 310.003 375.471C310.802 375.767 311.382 376.055 311.742 376.335C311.986 376.523 312.335 376.919 312.79 377.523C313.245 378.127 313.547 378.592 313.695 378.916L316.777 385.378L309.117 385.133L305.707 378.314C305.275 377.433 304.885 376.855 304.534 376.585C304.055 376.23 303.507 376.043 302.889 376.023L302.291 376.003L302.007 384.907L295.199 384.69Z" fill="white"/>
<path d="M326.259 372.617L329.116 372.709C329.426 372.72 330.027 372.638 330.922 372.466C331.374 372.392 331.748 372.173 332.043 371.814C332.339 371.453 332.495 371.034 332.51 370.555C332.532 369.847 332.326 369.296 331.888 368.902C331.452 368.509 330.615 368.293 329.378 368.254L326.4 368.16L326.259 372.617ZM319.035 385.449L319.734 363.513L331.031 363.873C333.126 363.94 334.72 364.171 335.816 364.564C336.912 364.959 337.783 365.653 338.431 366.646C339.079 367.641 339.38 368.837 339.335 370.233C339.296 371.45 339.004 372.492 338.458 373.359C337.91 374.225 337.174 374.917 336.249 375.438C335.658 375.769 334.855 376.031 333.839 376.229C334.638 376.525 335.218 376.813 335.579 377.095C335.822 377.281 336.171 377.677 336.626 378.281C337.08 378.886 337.383 379.35 337.532 379.674L340.612 386.136L332.952 385.892L329.543 379.073C329.112 378.192 328.72 377.614 328.37 377.343C327.892 376.989 327.343 376.801 326.726 376.781L326.127 376.762L325.843 385.666L319.035 385.449Z" fill="white"/>
<path d="M348.531 375.453C348.46 377.669 348.822 379.273 349.614 380.266C350.406 381.259 351.51 381.779 352.927 381.825C354.383 381.871 355.526 381.433 356.354 380.51C357.182 379.588 357.635 377.899 357.712 375.446C357.779 373.382 357.41 371.859 356.608 370.881C355.804 369.9 354.691 369.388 353.264 369.342C351.896 369.299 350.784 369.749 349.926 370.69C349.067 371.631 348.602 373.219 348.531 375.453ZM341.754 375.209C341.868 371.626 342.954 368.87 345.012 366.94C347.071 365.007 349.88 364.098 353.442 364.211C357.094 364.328 359.875 365.397 361.788 367.419C363.7 369.443 364.6 372.221 364.488 375.752C364.407 378.316 363.908 380.404 362.994 382.017C362.078 383.63 360.791 384.867 359.131 385.729C357.471 386.59 355.424 386.981 352.99 386.904C350.516 386.825 348.482 386.366 346.886 385.526C345.288 384.686 344.015 383.398 343.062 381.661C342.108 379.922 341.672 377.771 341.754 375.209Z" fill="white"/>
<path d="M375.101 374.172L377.958 374.264C378.268 374.273 378.869 374.192 379.764 374.021C380.216 373.946 380.589 373.728 380.885 373.367C381.181 373.007 381.337 372.588 381.352 372.11C381.374 371.401 381.168 370.85 380.73 370.457C380.293 370.064 379.457 369.847 378.22 369.808L375.242 369.713L375.101 374.172ZM367.877 387.004L368.574 365.066L379.873 365.426C381.968 365.495 383.562 365.724 384.658 366.119C385.754 366.512 386.626 367.208 387.273 368.201C387.921 369.196 388.222 370.392 388.177 371.786C388.138 373.004 387.846 374.047 387.298 374.912C386.752 375.779 386.014 376.472 385.089 376.992C384.5 377.322 383.697 377.586 382.681 377.784C383.48 378.078 384.06 378.367 384.42 378.648C384.664 378.837 385.013 379.231 385.468 379.837C385.922 380.441 386.225 380.904 386.374 381.229L389.454 387.69L381.794 387.446L378.385 380.626C377.953 379.745 377.562 379.169 377.212 378.897C376.734 378.543 376.185 378.355 375.566 378.336L374.969 378.317L374.685 387.221L367.877 387.004Z" fill="white"/>
<path d="M378.666 424.274C378.191 424.274 377.719 424.083 377.373 423.705L365.959 411.213L353.643 422.465C352.93 423.119 351.823 423.067 351.17 422.355L339.757 409.862L327.441 421.115C326.727 421.768 325.619 421.717 324.969 421.004L313.554 408.512L301.238 419.767C300.897 420.08 300.435 420.244 299.979 420.224C299.515 420.203 299.079 419.998 298.766 419.656L287.351 407.164L275.035 418.416C274.323 419.068 273.215 419.016 272.563 418.305C271.911 417.592 271.962 416.484 272.675 415.833L286.282 403.398C286.995 402.744 288.103 402.796 288.755 403.509L300.169 416.003L312.485 404.748C312.827 404.434 313.286 404.273 313.745 404.291C314.207 404.312 314.645 404.516 314.958 404.859L326.371 417.35L338.687 406.098C339.399 405.445 340.507 405.496 341.161 406.209L352.574 418.701L364.89 407.448C365.603 406.793 366.71 406.844 367.362 407.559L379.958 421.343C380.61 422.057 380.559 423.165 379.846 423.816C379.51 424.122 379.087 424.274 378.666 424.274Z" fill="white"/>
<path d="M167.667 479.618L159.323 475.638L151.879 439.416L155.919 434.966L167.667 479.618Z" fill="#40AD87"/>
<path d="M167.666 479.618L178.739 473.15L169.246 443.305L155.918 434.966L167.666 479.618Z" fill="#40AD87"/>
<path d="M167.666 479.618L155.918 434.966L169.246 443.305L178.739 473.15L167.666 479.618Z" fill="#81D6B8"/>
<path d="M349.265 486.204C348.95 486.204 348.642 486.198 348.343 486.191C344.663 486.089 341.761 483.024 341.862 479.343C341.963 475.665 345.003 472.772 348.709 472.862C358.979 473.198 380.717 466.889 393.134 454.836C393.902 454.091 394.837 453.541 395.862 453.233C416.913 446.916 424.749 459.679 425.071 460.226L413.594 467.012C413.594 467.012 413.638 467.105 413.747 467.256C413.621 467.08 410.639 463.204 401.146 465.603C385.563 479.826 361.643 486.204 349.265 486.204Z" fill="#17282F"/>
<path d="M348.526 495.064L324.242 493.535L322.326 448.767L354.962 449.986L348.526 495.064Z" fill="#40AD87"/>
<path d="M348.527 495.064L354.203 489.417L357.722 461.502L354.963 449.986L348.527 495.064Z" fill="#40AD87"/>
<path d="M348.527 495.064L354.963 449.986L357.722 461.502L354.203 489.417L348.527 495.064Z" fill="#81D6B8"/>
<path d="M489.213 478.112C488.37 478.112 487.52 477.846 486.796 477.297C472.937 466.763 454.202 448.062 447.013 430.021C446.909 429.758 446.832 429.483 446.785 429.203C443.28 408.359 439.93 364.482 439.789 362.623C439.622 360.422 441.273 358.501 443.474 358.334C445.672 358.171 447.6 359.817 447.766 362.019C447.801 362.467 451.182 406.775 454.604 427.45C461.773 444.992 481.213 463.004 491.637 470.927C493.396 472.264 493.738 474.774 492.401 476.533C491.614 477.567 490.421 478.112 489.213 478.112Z" fill="#17282F"/>
<path d="M507.704 480.133C504.611 480.133 501.105 478.73 497.284 475.966C495.495 474.67 495.093 472.17 496.389 470.381C497.685 468.592 500.185 468.19 501.975 469.485C505.277 471.875 507.081 472.133 507.704 472.133C509.913 472.133 511.704 473.923 511.704 476.133C511.704 478.342 509.913 480.133 507.704 480.133Z" fill="#17282F"/>
<path d="M498.405 475.852C502.685 463.138 520.232 465.651 526.274 467.539C532.317 469.427 537.761 471.802 541.033 473.943C544.306 476.082 544.36 479.657 539.996 481.698C534.614 484.215 521.113 481.981 521.113 481.981C528.102 485.04 521.1 489.945 508.84 485.127C504.849 483.559 496.894 480.51 498.405 475.852Z" fill="#40AD87"/>
<path d="M455.816 368.112C454.227 378.913 445.283 386.88 438.005 385.81C430.728 384.74 430.427 375.093 432.013 364.29C433.603 353.488 436.48 345.621 443.756 346.692C451.033 347.761 457.404 357.309 455.816 368.112Z" fill="#17282F"/>
<path d="M280.926 323.896C280.926 324.5 280.438 324.989 279.834 324.989C279.23 324.989 278.742 324.5 278.742 323.896C278.742 323.293 279.23 322.804 279.834 322.804C280.438 322.804 280.926 323.293 280.926 323.896Z" fill="#17282F"/>
<path d="M290.943 331.766C290.943 332.37 290.455 332.859 289.851 332.859C289.247 332.859 288.758 332.37 288.758 331.766C288.758 331.163 289.247 330.673 289.851 330.673C290.455 330.673 290.943 331.163 290.943 331.766Z" fill="#17282F"/>
<path d="M292.166 460.973C292.166 461.576 291.676 462.064 291.074 462.064C290.47 462.064 289.98 461.576 289.98 460.973C289.98 460.37 290.47 459.881 291.074 459.881C291.676 459.881 292.166 460.37 292.166 460.973Z" fill="#17282F"/>
<path d="M302.185 468.843C302.185 469.447 301.696 469.937 301.092 469.937C300.489 469.937 300 469.447 300 468.843C300 468.239 300.489 467.75 301.092 467.75C301.696 467.75 302.185 468.239 302.185 468.843Z" fill="#17282F"/>
<path d="M124.677 468.598H124.675C124.671 468.599 124.174 468.852 123.981 471.078C123.786 473.322 124.193 474.842 125.226 475.723C125.46 475.925 125.728 476.093 126.025 476.229C126.402 475.813 126.659 475.345 126.75 474.858C127.107 472.926 126.186 470.097 125.155 468.952C124.886 468.654 124.714 468.598 124.677 468.598ZM116.289 469.755C116.281 470.257 116.327 471.099 116.526 472.501C116.796 474.404 117.498 475.866 118.55 476.797C118.238 474.119 117.05 471.019 116.289 469.755ZM108.86 470.918C108.784 471.122 108.644 471.797 108.974 473.643C109.412 476.097 111 477.726 112.759 478.587C112.751 478.304 112.698 477.989 112.604 477.643C111.557 473.833 109.566 471.206 108.86 470.918ZM110.014 481.954C106.841 481.954 102.55 480.031 100.236 476.689C100.026 476.387 100.102 475.971 100.404 475.762C100.707 475.552 101.122 475.628 101.332 475.931C103.82 479.523 109.304 481.44 111.739 480.305C111.995 480.185 112.203 480.034 112.362 479.853C110.186 478.847 108.197 476.88 107.661 473.878C107.359 472.187 107.119 469.904 108.513 469.589C110.425 469.159 112.927 473.783 113.89 477.289C114.068 477.938 114.124 478.538 114.063 479.08C114.906 479.31 115.735 479.37 116.445 479.267C117.022 479.183 117.843 478.946 118.278 478.274C116.658 477.178 115.568 475.249 115.205 472.687C114.688 469.042 115.076 468.406 115.48 468.095C115.743 467.893 116.076 467.855 116.397 467.992C117.823 468.598 119.551 473.77 119.881 476.697C119.917 477.019 119.917 477.329 119.884 477.621C120.43 477.838 121.031 477.957 121.682 477.97C122.838 478.037 123.981 477.669 124.895 477.131C124.706 477.013 124.527 476.882 124.359 476.738C122.976 475.557 122.418 473.667 122.653 470.964C122.833 468.874 123.309 467.731 124.15 467.373C124.444 467.242 125.044 467.119 125.76 467.692C127.199 468.842 128.544 472.489 128.06 475.101C127.96 475.641 127.727 476.159 127.391 476.635C129.837 477.057 133.28 476.37 136.249 475.637C136.605 475.55 136.968 475.766 137.056 476.123C137.144 476.482 136.927 476.842 136.569 476.931C132.956 477.825 129.066 478.552 126.319 477.754C125.097 478.725 123.378 479.316 121.655 479.304C120.869 479.287 120.138 479.147 119.469 478.893C118.944 479.787 117.966 480.393 116.638 480.587C115.752 480.719 114.709 480.634 113.654 480.333C113.354 480.833 112.901 481.233 112.303 481.513C111.665 481.81 110.881 481.953 110.014 481.954Z" fill="#17282F"/>
<path d="M305.165 492.033L308.778 485.767L305.165 479.501H301.297L303.482 485.768L301.297 492.033H305.165Z" fill="#17282F"/>
<path d="M301.551 489.033C299.751 489.033 298.284 487.567 298.284 485.767C298.284 483.967 299.751 482.514 301.551 482.514L295.408 481.284L293.777 486.245L296.519 490.431L301.551 489.033Z" fill="#17282F"/>
<path d="M298.463 489.033C296.663 489.033 295.196 487.567 295.196 485.767C295.196 483.967 296.663 482.513 298.463 482.513C300.263 482.513 301.716 483.967 301.716 485.767C301.716 487.567 300.263 489.033 298.463 489.033ZM302.076 479.501H294.836L291.223 485.767L294.836 492.033H302.076L305.689 485.767L302.076 479.501Z" fill="#40AD87"/>
<path d="M557.185 479.082L554.502 474.428L557.185 469.775H560.058L558.435 474.428L560.058 479.082H557.185Z" fill="#40AD87"/>
<path d="M559.869 476.854C561.206 476.854 562.296 475.766 562.296 474.429C562.296 473.093 561.206 472.011 559.869 472.011L564.432 471.099L565.642 474.783L563.606 477.892L559.869 476.854Z" fill="#40AD87"/>
<path d="M562.165 476.854C563.501 476.854 564.59 475.766 564.59 474.428C564.59 473.092 563.501 472.011 562.165 472.011C560.828 472.011 559.748 473.092 559.748 474.428C559.748 475.766 560.828 476.854 562.165 476.854ZM559.481 469.775H564.858L567.541 474.428L564.858 479.082H559.481L556.797 474.428L559.481 469.775Z" fill="#17282F"/>
<path d="M457.264 485.261H463.288C464.856 485.261 466.14 483.976 466.14 482.407C466.14 480.839 464.856 479.557 463.288 479.557H457.264C455.695 479.557 454.412 480.839 454.412 482.407C454.412 483.976 455.695 485.261 457.264 485.261Z" fill="#17282F"/>
<path d="M447.64 479.881C449.127 476.725 452.733 475.3 455.695 476.696C458.656 478.093 459.851 481.781 458.364 484.937C456.876 488.092 453.269 489.517 450.308 488.119C447.347 486.724 446.152 483.036 447.64 479.881Z" fill="#40AD87"/>
<path d="M449.305 488.11L450.957 488.891L456.701 476.707L455.049 475.928L449.305 488.11Z" fill="#17282F"/>
</svg>
